<?xml version="1.0" encoding="utf-8"?>
<!-- Generator: Adobe Illustrator 25.0.0, SVG Export Plug-In . SVG Version: 6.00 Build 0)  -->
<svg version="1.1" id="Layer_1" xmlns="http://www.w3.org/2000/svg" xmlns:xlink="http://www.w3.org/1999/xlink" x="0px" y="0px"
	 viewBox="0 0 128 128" style="enable-background:new 0 0 128 128;" xml:space="preserve">
<style type="text/css">
	.st0{fill:#52BE96;}
</style>
<g>
	<path class="st0" d="M116.2,15L83.8,94c-1.6,3.2-4,4.7-7.1,4.7H49c-3.2,0-5.5-1.6-7.1-4.7l-13.4-34c-1.6-4,0.8-8.7,4.7-10.3
		c0.8,0,1.6-0.8,2.4-0.8H49c3.2,0,5.5,1.6,7.1,4.7l6.3,16.6L89.3,4.7H31.6c-15,0-26.9,12.6-26.9,27.7l0,0v63.3
		c0,15,11.9,27.7,26.9,27.7c0,0,0,0,0.8,0h63.3c15,0,27.7-12.6,27.7-27.7l0,0V32.4C122.5,26.1,120.1,19.7,116.2,15z"/>
</g>
</svg>
