<?xml version="1.0" encoding="utf-8"?>
<!-- Generator: Adobe Illustrator 25.0.0, SVG Export Plug-In . SVG Version: 6.00 Build 0)  -->
<svg version="1.1" id="Attendify" xmlns="http://www.w3.org/2000/svg" xmlns:xlink="http://www.w3.org/1999/xlink" x="0px" y="0px"
	 viewBox="0 0 74.6 14.9" style="enable-background:new 0 0 74.6 14.9;" xml:space="preserve">
<style type="text/css">
	.st0{enable-background:new    ;}
	.st1{fill:#FFFFFF;}
</style>
<g class="st0">
	<path class="st1" d="M18.8,7.3c0-1.7,1.1-2.9,2.6-2.9c0.7,0,1.3,0.3,1.6,0.8h0V4.7c0-0.1,0.1-0.2,0.2-0.2h1.3
		c0.1,0,0.2,0.1,0.2,0.2v5.2c0,0.1-0.1,0.2-0.2,0.2h-1.3c-0.1,0-0.2-0.1-0.2-0.2V9.4h0c-0.3,0.6-0.9,0.8-1.7,0.8
		C19.9,10.3,18.8,9,18.8,7.3z M21.9,8.7c0.8,0,1.3-0.6,1.3-1.3c0-0.8-0.5-1.3-1.3-1.3c-0.8,0-1.3,0.6-1.3,1.3
		C20.6,8.1,21.1,8.7,21.9,8.7z"/>
</g>
<g class="st0">
	<path class="st1" d="M26.7,8V6.1h-0.9c-0.1,0-0.2-0.1-0.2-0.2V4.7c0-0.1,0.1-0.2,0.2-0.2h0.9V3.2c0-0.1,0.1-0.2,0.2-0.2h1.4
		c0.1,0,0.2,0.1,0.2,0.2v1.3h1.6c0.1,0,0.2,0.1,0.2,0.2v1.1c0,0.1-0.1,0.2-0.2,0.2h-1.6v1.7c0,0.7,0.3,0.9,1,0.9
		c0.3,0,0.5,0,0.7-0.1c0.1,0,0.2,0,0.2,0.1v1.2c0,0.1,0,0.2-0.1,0.2c-0.3,0.2-0.7,0.2-1.2,0.2C27.5,10.3,26.7,9.6,26.7,8z"/>
</g>
<g class="st0">
	<path class="st1" d="M31.9,8V6.1H31c-0.1,0-0.2-0.1-0.2-0.2V4.7c0-0.1,0.1-0.2,0.2-0.2h0.9V3.2C31.9,3.1,32,3,32.1,3h1.4
		c0.1,0,0.2,0.1,0.2,0.2v1.3h1.6c0.1,0,0.2,0.1,0.2,0.2v1.1c0,0.1-0.1,0.2-0.2,0.2h-1.6v1.7c0,0.7,0.3,0.9,1,0.9
		c0.3,0,0.5,0,0.7-0.1c0.1,0,0.2,0,0.2,0.1v1.2c0,0.1,0,0.2-0.1,0.2c-0.3,0.2-0.7,0.2-1.2,0.2C32.7,10.3,31.9,9.6,31.9,8z"/>
</g>
<g class="st0">
	<path class="st1" d="M36.3,7.4c0-1.7,1.2-3,3-3c1.7,0,3,1.2,3,2.9v0.2c0,0.2-0.1,0.3-0.3,0.3H38c0.1,0.8,0.6,1.1,1.3,1.1
		c0.5,0,0.9-0.2,1.1-0.5c0-0.1,0.1-0.2,0.2-0.2h1.3c0.1,0,0.2,0.1,0.2,0.2c-0.3,1-1.3,1.8-2.8,1.8C37.5,10.3,36.3,9.1,36.3,7.4z
		 M40.5,6.7c-0.1-0.7-0.5-1-1.2-1c-0.7,0-1.1,0.3-1.3,1H40.5z"/>
	<path class="st1" d="M43.3,9.9V4.7c0-0.1,0.1-0.2,0.2-0.2h1.3c0.1,0,0.2,0.1,0.2,0.2v0.5h0c0.3-0.6,0.9-0.9,1.7-0.9
		c1.3,0,2.1,0.9,2.1,2.3v3.2c0,0.1-0.1,0.2-0.2,0.2h-1.4c-0.1,0-0.2-0.1-0.2-0.2V7.2c0-0.8-0.3-1.2-1-1.2c-0.7,0-1.1,0.4-1.1,1.2
		v2.8c0,0.1-0.1,0.2-0.2,0.2h-1.4C43.4,10.1,43.3,10.1,43.3,9.9z"/>
</g>
<g class="st0">
	<path class="st1" d="M49.9,7.3c0-1.7,1.1-2.9,2.6-2.9c0.7,0,1.3,0.3,1.6,0.8h0v-3c0-0.1,0.1-0.2,0.2-0.2h1.4c0.1,0,0.2,0.1,0.2,0.2
		v7.7c0,0.1-0.1,0.2-0.2,0.2h-1.4c-0.1,0-0.2-0.1-0.2-0.2V9.4h0c-0.3,0.6-0.9,0.8-1.6,0.8C51,10.3,49.9,9,49.9,7.3z M53,8.7
		c0.8,0,1.3-0.6,1.3-1.3C54.2,6.6,53.7,6,53,6c-0.8,0-1.3,0.6-1.3,1.3C51.7,8.1,52.2,8.7,53,8.7z"/>
</g>
<g class="st0">
	<path class="st1" d="M58.2,1.7c0.6,0,1.1,0.5,1.1,1.1c0,0.6-0.5,1.1-1.1,1.1c-0.6,0-1.1-0.4-1.1-1.1C57.1,2.1,57.5,1.7,58.2,1.7z
		 M57.3,9.9V4.7c0-0.1,0.1-0.2,0.2-0.2h1.4C59,4.5,59,4.6,59,4.7v5.2c0,0.1-0.1,0.2-0.2,0.2h-1.4C57.4,10.1,57.3,10.1,57.3,9.9z"/>
</g>
<g class="st0">
	<path class="st1" d="M61,9.9V6.1h-0.9c-0.1,0-0.2-0.1-0.2-0.2V4.7c0-0.1,0.1-0.2,0.2-0.2H61V4.3c0-1.7,0.8-2.5,2.3-2.5
		c0.3,0,0.7,0,1,0.1c0.1,0,0.2,0.1,0.2,0.2v1.1c0,0.1-0.1,0.2-0.2,0.2c-0.2,0-0.4,0-0.5,0c-0.7,0-1,0.2-1,0.9v0.2h1.4
		c0.1,0,0.2,0.1,0.2,0.2v1.1c0,0.1-0.1,0.2-0.2,0.2h-1.4v3.9c0,0.1-0.1,0.2-0.2,0.2h-1.4C61.1,10.1,61,10.1,61,9.9z"/>
</g>
<g class="st0">
	<path class="st1" d="M65.2,10.8c0-0.1,0.1-0.2,0.2-0.2h1.3c0.1,0,0.2,0.1,0.2,0.2c0.1,0.3,0.5,0.5,1,0.5c0.8,0,1.2-0.4,1.2-1.2V9.2
		h0c-0.3,0.5-0.9,0.8-1.7,0.8c-1.3,0-2.1-0.8-2.1-2.3v-3c0-0.1,0.1-0.2,0.2-0.2h1.4c0.1,0,0.2,0.1,0.2,0.2v2.6c0,0.8,0.3,1.2,1,1.2
		c0.7,0,1.1-0.4,1.1-1.2V4.7c0-0.1,0.1-0.2,0.2-0.2h1.4c0.1,0,0.2,0.1,0.2,0.2v5.3c0,1.7-1.1,2.7-2.9,2.7
		C66.3,12.8,65.4,12,65.2,10.8z"/>
	<path class="st1" d="M72,9.2C72,8.5,72.4,8,73.1,8c0.7,0,1.1,0.5,1.1,1.1c0,0.6-0.4,1.1-1.1,1.1C72.4,10.2,72,9.8,72,9.2z"/>
</g>
<path class="st1" d="M14.1,1.2l-4.1,10c-0.2,0.4-0.5,0.6-0.9,0.6H5.6c-0.4,0-0.7-0.2-0.9-0.6L3,6.9C2.8,6.4,3.1,5.8,3.6,5.6
	c0.1,0,0.2-0.1,0.3-0.1h1.7c0.4,0,0.7,0.2,0.9,0.6l0.8,2.1l3.4-8.3H3.4C1.5-0.1,0,1.5,0,3.4c0,0,0,0,0,0v8c0,1.9,1.5,3.5,3.4,3.5
	c0,0,0,0,0.1,0h8c1.9,0,3.5-1.6,3.5-3.5c0,0,0,0,0,0v-8C14.9,2.6,14.6,1.8,14.1,1.2z"/>
</svg>
